<?xml version="1.0" encoding="UTF-8"?>
<svg xmlns="http://www.w3.org/2000/svg" viewBox="0 0 512 512" width="512" height="512"><g id="Layer_3" data-name="Layer 3"><path d="M324,72a28,28,0,1,0-28-28A28.031,28.031,0,0,0,324,72Z"/><rect x="168" y="48" width="16" height="16"/><rect x="272" y="296" width="16" height="16"/><rect x="400" y="48" width="16" height="16"/><path d="M283.839,360.981l-23.8-13.019-13.018-23.8a8,8,0,0,0-14.038,0l-13.018,23.8-23.8,13.019a8,8,0,0,0,0,14.037l23.8,13.019,13.018,23.8a8,8,0,0,0,14.038,0l13.018-23.8,23.8-13.019a8,8,0,0,0,0-14.037Z"/><path d="M20.161,71.019l23.8,13.019,13.018,23.8a8,8,0,0,0,14.038,0l13.018-23.8,23.8-13.019a8,8,0,0,0,0-14.037l-23.8-13.019-13.018-23.8a8,8,0,0,0-14.038,0l-13.018,23.8-23.8,13.019a8,8,0,0,0,0,14.037Z"/><path d="M510.021,274.732l-56-64a7.973,7.973,0,0,0-1.583-1.389L432,195.719V156a28.042,28.042,0,0,0-17.175-25.821l-3.072-12.741A27.919,27.919,0,0,0,384.533,96H374.144a28.131,28.131,0,0,0-26.217,18.169l-5.2,13.877a27.8,27.8,0,0,0-18.238,8.155L312.2,148.485A11.924,11.924,0,0,1,303.716,152H264V84a28.031,28.031,0,0,0-28-28,12.013,12.013,0,0,1-12-12V0H208V44a28.031,28.031,0,0,0,28,28,12.013,12.013,0,0,1,12,12v68H208.284a11.923,11.923,0,0,1-8.485-3.514L187.514,136.2a27.815,27.815,0,0,0-13.316-7.443l-2.729-11.319A27.919,27.919,0,0,0,144.249,96H133.86a28.131,28.131,0,0,0-26.217,18.169L102.231,128.6A28.046,28.046,0,0,0,80,156v39.719L59.563,209.344a7.959,7.959,0,0,0-1.583,1.389l-56,64a8,8,0,0,0-1.912,6.3l15.6,119.484V512H120V488q0-.363-.033-.725L112.6,406.252a87.986,87.986,0,0,0,23.725-10.522c14.1-9.067,30.842-26.347,31.636-57.425L209.15,270.58c.065-.107.128-.216.188-.326A11.992,11.992,0,0,1,219.873,264h71.767a11.935,11.935,0,0,1,10.733,6.634c.048.1.1.192.151.288l42.233,76.511c3.471,25.409,18.258,40.158,30.917,48.3A87.991,87.991,0,0,0,399.4,406.252l-7.366,81.023q-.033.362-.033.725v24H496.333V400.52l15.6-119.483A8,8,0,0,0,510.021,274.732ZM344,226v86.952L316.6,263.32A27.847,27.847,0,0,0,291.639,248H219.873a27.982,27.982,0,0,0-24.482,14.413L168,307.45V218a18.021,18.021,0,0,0-16-17.882V192h16V176H152V160H136v16H120v16h16v8.118A18.021,18.021,0,0,0,120,218v20.268l-12.813,28.189L96,199.338V156a12.013,12.013,0,0,1,12-12h59.716a11.923,11.923,0,0,1,8.485,3.514L188.486,159.8a27.819,27.819,0,0,0,19.8,8.2h95.432a27.82,27.82,0,0,0,19.8-8.2L335.8,147.515A11.924,11.924,0,0,1,344.284,144H404a12.013,12.013,0,0,1,12,12v43.338l-12.537,75.223L392,253.927V226a18.021,18.021,0,0,0-18-18H362A18.021,18.021,0,0,0,344,226Z"/><path d="M312,184a24,24,0,1,0,24,24A24.027,24.027,0,0,0,312,184Z"/><path d="M392,176a24,24,0,1,0-24,24A24.027,24.027,0,0,0,392,176Z"/></g></svg>
