<?xml version="1.0" encoding="iso-8859-1"?>
<!-- Generator: Adobe Illustrator 18.1.1, SVG Export Plug-In . SVG Version: 6.00 Build 0)  -->
<svg version="1.1" id="Capa_1" xmlns="http://www.w3.org/2000/svg" xmlns:xlink="http://www.w3.org/1999/xlink" x="0px" y="0px"
	 viewBox="0 0 201.862 201.862" style="enable-background:new 0 0 201.862 201.862;" xml:space="preserve">
<g>
	<g>
		<path style="fill:#010002;" d="M187.872,0H13.979C7.129,0,1.557,5.572,1.557,12.422v130.99c0,6.846,5.572,12.419,12.422,12.419
			h49.12c3.643,4.728,11.016,16.073,8.432,21.466c-1.041,2.172-3.883,3.275-8.453,3.275c-24.719,0-25.428,8.757-25.428,9.763v11.527
			h126.566v-15.074l-0.694-0.526c-0.304-0.236-7.669-5.687-25.861-5.687c-3.973,0-4.76-1.553-5.018-2.058
			c-2.276-4.445,3.872-15.94,8.6-22.683h46.632c6.857,0,12.429-5.572,12.429-12.419V12.422C200.301,5.572,194.729,0,187.872,0z
			 M129.476,180.124c1.349,2.656,4.105,3.994,8.181,3.994c13.811,0,20.893,3.321,23.012,4.527v9.666H41.193l-0.007-7.902
			c0.186-1.743,4.474-6.292,21.888-6.292c6.055,0,9.974-1.779,11.656-5.293c3.242-6.778-3.468-17.715-7.215-22.998h69.448
			C133.266,161.481,126.187,173.707,129.476,180.124z M196.755,143.412c0,4.899-3.987,8.872-8.883,8.872h-44.077H60.261H13.979
			c-4.892,0-8.872-3.969-8.872-8.872V12.422c0-4.889,3.98-8.876,8.872-8.876h173.893c4.896,0,8.883,3.987,8.883,8.876
			C196.754,12.422,196.754,143.412,196.755,143.412z"/>
		<path style="fill:#010002;" d="M12.204,129.544H189.65V12.902H12.204V129.544z M15.758,16.448h170.35v109.552H15.758V16.448z"/>
		<circle style="fill:#010002;" cx="100.927" cy="142.807" r="5.851"/>
		<path style="fill:#010002;" d="M113.725,73.524c0-6.317,4.491-11.796,10.679-13.038l1.568-0.308l-0.877-1.328
			c-2.33-3.536-5.404-5.658-8.715-6.102c-1.768-0.576-4.076-0.057-6.381,0.737c1.485-0.716,2.996-1.682,4.323-3.003
			c4.502-4.509,4.975-11.187,4.996-11.477l0.068-1.213l-1.206,0.082c-0.279,0.018-6.964,0.494-11.47,4.996
			c-4.509,4.509-4.982,11.187-5.003,11.467l-0.011,0.24c-2.87-1.865-6.259-2.312-8.811-2.312c-2.602,0-3.99,0.24-4.728,0.551
			c-4.198,0.648-7.773,3.668-10.085,8.528c-2.273,4.778-3.056,10.79-2.205,16.953c1.678,12.118,9.173,21.251,17.433,21.251
			c0.508,0,1.006-0.039,1.507-0.1c2.82-0.39,5.397-1.857,7.508-4.277c2.097,2.369,4.653,3.815,7.433,4.205
			c0.494,0.068,0.998,0.1,1.496,0.1c5.615,0,11.019-4.234,14.466-11.313l0.63-1.288l-1.428-0.236
			C118.431,85.603,113.725,80.088,113.725,73.524z M108.221,44.385c2.813-2.809,6.753-3.844,8.779-4.198
			c-0.361,2.026-1.385,5.966-4.198,8.779c-2.827,2.809-6.757,3.84-8.779,4.198C104.37,51.138,105.397,47.212,108.221,44.385z
			 M106.553,54.789c-1.249,0.472-2.398,0.855-3.335,0.945c-0.107-0.097-0.215-0.165-0.315-0.254
			C103.164,55.458,104.617,55.329,106.553,54.789z M110.032,97.255c-2.602-0.369-4.975-1.893-6.875-4.431l-0.859-1.149l-0.863,1.16
			c-1.9,2.577-4.295,4.13-6.936,4.491c-7.498,1.045-14.924-7.823-16.52-19.326c-0.787-5.74-0.079-11.331,2.026-15.736
			c2.018-4.252,5.086-6.868,8.629-7.351l-0.082-0.787l0.229,0.716c0.211-0.064,1.85-0.437,4.101-0.437
			c2.734,0,6.546,0.551,9.173,3.174l0.315,0.322h0.44c1.696,0,3.686-0.784,5.805-1.61c2.083-0.816,4.245-1.661,5.966-1.661
			c0.415,0,0.812,0.057,1.328,0.204c2.43,0.34,4.66,1.7,6.492,3.962c-6.36,1.993-10.815,7.949-10.815,14.731
			c0,7.125,4.774,13.192,11.56,14.938C119.827,94.471,114.852,97.896,110.032,97.255z"/>
	</g>
</g>
<g>
</g>
<g>
</g>
<g>
</g>
<g>
</g>
<g>
</g>
<g>
</g>
<g>
</g>
<g>
</g>
<g>
</g>
<g>
</g>
<g>
</g>
<g>
</g>
<g>
</g>
<g>
</g>
<g>
</g>
</svg>
