<?xml version="1.0" standalone="no"?>
<!DOCTYPE svg PUBLIC "-//W3C//DTD SVG 20010904//EN"
 "http://www.w3.org/TR/2001/REC-SVG-20010904/DTD/svg10.dtd">
<svg version="1.0" xmlns="http://www.w3.org/2000/svg"
 width="240.000000pt" height="240.000000pt" viewBox="0 0 240.000000 240.000000"
 preserveAspectRatio="xMidYMid meet">
<metadata>
Created by potrace 1.16, written by Peter Selinger 2001-2019
</metadata>
<g transform="translate(0.000000,240.000000) scale(0.100000,-0.100000)"
fill="#000000" stroke="none">
<path d="M0 1451 l0 -50 324 -3 c302 -3 325 -4 345 -22 28 -25 28 -77 0 -102
-19 -17 -44 -19 -303 -24 -307 -5 -307 -6 -347 -67 -16 -24 -19 -48 -19 -155
l0 -128 49 0 49 0 4 110 c2 72 7 113 16 122 10 10 83 14 297 18 268 5 285 6
312 26 52 39 73 81 73 149 0 71 -22 114 -79 152 -34 23 -37 23 -377 23 l-344
0 0 -49z"/>
<path d="M1117 1481 c-59 -38 -62 -50 -67 -258 -4 -138 -9 -196 -18 -205 -9
-9 -63 -14 -197 -16 l-185 -3 0 -50 0 -49 203 0 c180 0 205 2 230 19 59 38 62
50 67 258 4 138 9 196 18 205 9 9 63 14 197 16 l185 3 0 50 0 49 -202 0 c-181
0 -206 -2 -231 -19z"/>
<path d="M1650 1365 c0 -144 7 -171 54 -198 14 -8 105 -14 282 -17 240 -5 264
-7 283 -24 28 -25 28 -77 0 -102 -20 -18 -42 -19 -320 -22 l-299 -3 0 -50 0
-49 319 0 c314 0 318 0 352 23 57 38 79 81 79 152 0 71 -22 114 -79 152 -33
22 -40 23 -287 23 -294 0 -284 -3 -284 91 l0 59 300 0 300 0 0 50 0 50 -350 0
-350 0 0 -135z"/>
</g>
</svg>
